<svg width="256" height="256" viewBox="0 0 256 256" fill="none" xmlns="http://www.w3.org/2000/svg">
<path d="M25.6328 94.2715C25.9091 92.926 27.5627 92.4586 28.5341 93.4297L130.571 195.467C131.542 196.438 131.074 198.091 129.728 198.367C125.736 199.187 121.645 199.738 117.476 199.997C116.977 200.028 116.49 199.84 116.137 199.487L24.5127 107.863C24.1597 107.51 23.9726 107.023 24.0039 106.524C24.2634 102.355 24.813 98.2639 25.6328 94.2715ZM26.1562 132.28C25.7648 130.611 27.754 129.559 28.9668 130.771L93.2285 195.033C94.4409 196.246 93.3893 198.235 91.7197 197.844C59.2907 190.236 33.7637 164.709 26.1562 132.28ZM36.1347 67.1553C36.7122 66.1835 38.0474 66.0338 38.8466 66.833L157.167 185.153C157.966 185.953 157.816 187.288 156.845 187.865C153.909 189.61 150.862 191.189 147.719 192.589C147.061 192.882 146.292 192.732 145.783 192.224L31.7763 78.2168C31.2676 77.7077 31.1183 76.939 31.4111 76.2812C32.8111 73.1379 34.39 70.0914 36.1347 67.1553ZM111.915 24C160.563 24 200 63.4371 200 112.085C200 138.204 188.632 161.668 170.573 177.799C169.886 178.413 168.841 178.372 168.189 177.721L46.2793 55.8105C45.6279 55.1591 45.5872 54.1136 46.2011 53.4268C62.3315 35.3683 85.7957 24.0001 111.915 24ZM111.519 44.1602C109.308 44.1604 107.519 45.9483 107.519 48.1602C107.52 50.3719 109.308 52.1599 111.519 52.1602C144.655 52.1602 171.519 79.0242 171.519 112.16C171.52 114.372 173.308 116.16 175.519 116.16C177.731 116.16 179.519 114.372 179.519 112.16C179.519 74.6042 149.075 44.1602 111.519 44.1602Z" fill="url(#paint0_linear_225_2149)"/>
<path d="M248.968 215.028L206.312 172.372C217.492 154.944 224 134.24 224 112C224 50.144 173.856 0 112 0C50.144 0 0 50.144 0 112C0 173.856 50.144 224 112 224C134.24 224 154.944 217.492 172.372 206.312L215.028 248.968C224.404 258.344 239.596 258.344 248.968 248.968C258.34 239.592 258.344 224.404 248.968 215.028ZM112 216C54.564 216 8 169.436 8 112C8 54.564 54.564 8 112 8C169.436 8 216 54.564 216 112C216 169.436 169.436 216 112 216ZM243.312 243.312C237.064 249.56 226.932 249.56 220.688 243.312L179.076 201.7C187.656 195.276 195.28 187.648 201.704 179.076L243.312 220.684C249.564 226.928 249.564 237.064 243.312 243.312Z" fill="url(#paint1_linear_225_2149)"/>
<defs>
<linearGradient id="paint0_linear_225_2149" x1="44.5738" y1="-7.69029" x2="156.538" y2="156.42" gradientUnits="userSpaceOnUse">
<stop stop-color="#161616"/>
<stop offset="1" stop-color="#454545" stop-opacity="0.9"/>
</linearGradient>
<linearGradient id="paint1_linear_225_2149" x1="29.9247" y1="-46.0948" x2="192.781" y2="192.611" gradientUnits="userSpaceOnUse">
<stop stop-color="#161616"/>
<stop offset="1" stop-color="#454545" stop-opacity="0.9"/>
</linearGradient>
</defs>
</svg>
