<svg width="256" height="256" viewBox="0 0 256 256" fill="none" xmlns="http://www.w3.org/2000/svg">
<path d="M25.6332 94.2715C25.9096 92.926 27.5622 92.4586 28.5336 93.4297L130.571 195.467C131.542 196.438 131.074 198.091 129.729 198.367C125.736 199.187 121.645 199.738 117.475 199.997C116.976 200.028 116.49 199.84 116.137 199.487L24.5131 107.863C24.1601 107.51 23.9721 107.023 24.0034 106.524C24.2629 102.355 24.8135 98.2639 25.6332 94.2715ZM26.1567 132.28C25.7652 130.611 27.7535 129.56 28.9663 130.771L93.228 195.033C94.4403 196.246 93.3895 198.235 91.7202 197.844C59.2911 190.236 33.7642 164.709 26.1567 132.28ZM36.1352 67.1553C36.7127 66.1835 38.0479 66.0338 38.8471 66.833L157.167 185.153C157.967 185.953 157.817 187.288 156.845 187.865C153.909 189.61 150.862 191.189 147.718 192.589C147.06 192.882 146.292 192.733 145.783 192.224L31.7768 78.2168C31.2679 77.7077 31.1187 76.9391 31.4116 76.2812C32.8116 73.1378 34.3904 70.0914 36.1352 67.1553ZM111.915 24C160.563 24 200 63.4371 200 112.085C200 138.204 188.631 161.668 170.573 177.799C169.886 178.412 168.841 178.372 168.19 177.721L46.2797 55.8105C45.6283 55.1591 45.5877 54.1136 46.2016 53.4268C62.3321 35.3683 85.7961 24 111.915 24ZM111.52 44.1602C109.308 44.1602 107.52 45.9482 107.52 48.1602C107.52 50.3721 109.308 52.1602 111.52 52.1602C144.656 52.1602 171.52 79.0242 171.52 112.16C171.52 114.372 173.308 116.16 175.52 116.16C177.732 116.16 179.52 114.372 179.52 112.16C179.52 74.6042 149.076 44.1602 111.52 44.1602Z" fill="url(#paint0_linear_225_2137)"/>
<path d="M248.968 215.028L206.312 172.372C217.492 154.944 224 134.24 224 112C224 50.144 173.856 0 112 0C50.144 0 0 50.144 0 112C0 173.856 50.144 224 112 224C134.24 224 154.944 217.492 172.372 206.312L215.028 248.968C224.404 258.344 239.596 258.344 248.968 248.968C258.34 239.592 258.344 224.404 248.968 215.028ZM112 216C54.564 216 8 169.436 8 112C8 54.564 54.564 8 112 8C169.436 8 216 54.564 216 112C216 169.436 169.436 216 112 216ZM243.312 243.312C237.064 249.56 226.932 249.56 220.688 243.312L179.076 201.7C187.656 195.276 195.28 187.648 201.704 179.076L243.312 220.684C249.564 226.928 249.564 237.064 243.312 243.312Z" fill="url(#paint1_linear_225_2137)"/>
<defs>
<linearGradient id="paint0_linear_225_2137" x1="112" y1="24" x2="269.923" y2="117.937" gradientUnits="userSpaceOnUse">
<stop stop-color="white"/>
<stop offset="1" stop-color="white" stop-opacity="0.65"/>
</linearGradient>
<linearGradient id="paint1_linear_225_2137" x1="127.999" y1="0" x2="357.703" y2="136.634" gradientUnits="userSpaceOnUse">
<stop stop-color="white"/>
<stop offset="1" stop-color="white" stop-opacity="0.65"/>
</linearGradient>
</defs>
</svg>
